<?xml version="1.0" standalone="no"?>
<!DOCTYPE svg PUBLIC "-//W3C//DTD SVG 20010904//EN"
 "http://www.w3.org/TR/2001/REC-SVG-20010904/DTD/svg10.dtd">
<svg version="1.0" xmlns="http://www.w3.org/2000/svg"
 width="205.000000pt" height="205.000000pt" viewBox="0 0 205.000000 205.000000"
 preserveAspectRatio="xMidYMid meet">
<metadata>
Created by potrace 1.11, written by Peter Selinger 2001-2013
</metadata>
<g transform="translate(0.000000,205.000000) scale(0.100000,-0.100000)"
fill="#000000" stroke="none">
<path d="M230 2022 l-27 -28 0 -749 c0 -456 4 -758 9 -771 8 -18 135 -95 412
-253 22 -12 93 -53 156 -91 171 -101 233 -132 252 -127 9 3 151 83 315 178
164 95 307 178 318 184 105 57 155 92 164 114 6 16 10 303 9 770 -1 742 -1
743 -22 766 -11 13 -30 26 -41 29 -15 4 -124 -54 -385 -204 -200 -116 -367
-210 -371 -210 -4 0 -45 22 -91 49 -122 72 -579 336 -606 350 -43 23 -63 21
-92 -7z m1461 -478 c-1 -164 -3 -299 -4 -300 -1 -2 -56 28 -121 67 -65 38
-141 82 -170 98 -133 74 -217 124 -221 131 -5 8 199 130 216 130 5 0 9 5 9 10
0 6 6 10 13 11 6 0 71 35 142 78 72 43 131 77 133 75 2 -1 3 -136 3 -300z
m-877 36 c246 -143 452 -260 457 -260 5 0 9 -4 9 -10 0 -5 4 -10 10 -10 6 0
370 -206 398 -225 2 -2 3 -222 2 -472 l0 -61 -87 -49 c-108 -60 -140 -78 -228
-130 -38 -22 -86 -50 -105 -61 -19 -11 -84 -48 -143 -82 l-108 -62 -107 62
c-59 34 -209 121 -334 193 l-228 132 -1 125 c-4 1027 -3 1170 6 1170 6 0 212
-117 459 -260z"/>
</g>
</svg>
